<mxfile host="65bd71144e">
    <diagram id="HOpGqag9ALWOtkxDiAI3" name="Page-1">
        <mxGraphModel dx="1736" dy="1596" grid="1" gridSize="10" guides="1" tooltips="1" connect="1" arrows="1" fold="1" page="1" pageScale="1" pageWidth="850" pageHeight="1100" math="0" shadow="0">
            <root>
                <mxCell id="0"/>
                <mxCell id="1" parent="0"/>
                <mxCell id="28" style="edgeStyle=none;html=1;exitX=1;exitY=0.5;exitDx=0;exitDy=0;entryX=0;entryY=0.5;entryDx=0;entryDy=0;" parent="1" source="3" target="8" edge="1">
                    <mxGeometry relative="1" as="geometry"/>
                </mxCell>
                <mxCell id="34" value="(1-1)" style="edgeLabel;html=1;align=center;verticalAlign=middle;resizable=0;points=[];" parent="28" vertex="1" connectable="0">
                    <mxGeometry x="-0.0143" relative="1" as="geometry">
                        <mxPoint x="-1" as="offset"/>
                    </mxGeometry>
                </mxCell>
                <mxCell id="35" style="edgeStyle=none;html=1;exitX=1;exitY=0.75;exitDx=0;exitDy=0;entryX=0;entryY=0.5;entryDx=0;entryDy=0;" parent="1" target="15" edge="1" source="12">
                    <mxGeometry relative="1" as="geometry">
                        <mxPoint x="80" y="210" as="sourcePoint"/>
                        <Array as="points">
                            <mxPoint x="540" y="370"/>
                        </Array>
                        <mxPoint x="610" y="410" as="targetPoint"/>
                    </mxGeometry>
                </mxCell>
                <mxCell id="40" value="(M-M)" style="edgeLabel;html=1;align=center;verticalAlign=middle;resizable=0;points=[];" parent="35" vertex="1" connectable="0">
                    <mxGeometry x="0.1898" relative="1" as="geometry">
                        <mxPoint y="1" as="offset"/>
                    </mxGeometry>
                </mxCell>
                <mxCell id="38" style="edgeStyle=none;html=1;exitX=0.652;exitY=1.057;exitDx=0;exitDy=0;entryX=0;entryY=0.5;entryDx=0;entryDy=0;exitPerimeter=0;" parent="1" source="3" target="17" edge="1">
                    <mxGeometry relative="1" as="geometry"/>
                </mxCell>
                <mxCell id="39" value="(M-M)" style="edgeLabel;html=1;align=center;verticalAlign=middle;resizable=0;points=[];" parent="38" vertex="1" connectable="0">
                    <mxGeometry x="0.0246" relative="1" as="geometry">
                        <mxPoint as="offset"/>
                    </mxGeometry>
                </mxCell>
                <mxCell id="42" style="edgeStyle=none;html=1;exitX=0.5;exitY=1;exitDx=0;exitDy=0;entryX=0.5;entryY=0;entryDx=0;entryDy=0;" parent="1" source="3" target="41" edge="1">
                    <mxGeometry relative="1" as="geometry"/>
                </mxCell>
                <mxCell id="43" value="(1-1)" style="edgeLabel;html=1;align=center;verticalAlign=middle;resizable=0;points=[];" parent="42" vertex="1" connectable="0">
                    <mxGeometry x="0.0286" y="1" relative="1" as="geometry">
                        <mxPoint as="offset"/>
                    </mxGeometry>
                </mxCell>
                <mxCell id="3" value="UserID" style="rounded=1;whiteSpace=wrap;html=1;" parent="1" vertex="1">
                    <mxGeometry x="40" y="150" width="70" height="60" as="geometry"/>
                </mxCell>
                <mxCell id="27" style="edgeStyle=none;html=1;exitX=1;exitY=0.5;exitDx=0;exitDy=0;" parent="1" source="8" target="12" edge="1">
                    <mxGeometry relative="1" as="geometry"/>
                </mxCell>
                <mxCell id="29" style="edgeStyle=none;html=1;exitX=0.5;exitY=0;exitDx=0;exitDy=0;entryX=0;entryY=0.5;entryDx=0;entryDy=0;" parent="1" source="8" target="11" edge="1">
                    <mxGeometry relative="1" as="geometry"/>
                </mxCell>
                <mxCell id="8" value="Org&lt;div&gt;(TenantCode)&lt;/div&gt;" style="rounded=1;whiteSpace=wrap;html=1;" parent="1" vertex="1">
                    <mxGeometry x="180" y="150" width="70" height="60" as="geometry"/>
                </mxCell>
                <mxCell id="31" style="edgeStyle=none;html=1;exitX=1;exitY=0.5;exitDx=0;exitDy=0;entryX=0;entryY=0.5;entryDx=0;entryDy=0;" parent="1" source="11" target="30" edge="1">
                    <mxGeometry relative="1" as="geometry"/>
                </mxCell>
                <mxCell id="11" value="Module&lt;div&gt;(Bรz เรียกSystem_CODE)&lt;/div&gt;" style="rounded=1;whiteSpace=wrap;html=1;" parent="1" vertex="1">
                    <mxGeometry x="270" y="60" width="120" height="60" as="geometry"/>
                </mxCell>
                <mxCell id="24" style="edgeStyle=none;html=1;exitX=1;exitY=0.5;exitDx=0;exitDy=0;entryX=0;entryY=0.5;entryDx=0;entryDy=0;" parent="1" source="12" target="13" edge="1">
                    <mxGeometry relative="1" as="geometry"/>
                </mxCell>
                <mxCell id="12" value="Group_User" style="rounded=1;whiteSpace=wrap;html=1;" parent="1" vertex="1">
                    <mxGeometry x="350" y="170" width="120" height="60" as="geometry"/>
                </mxCell>
                <mxCell id="21" value="" style="edgeStyle=none;html=1;" parent="1" source="13" target="20" edge="1">
                    <mxGeometry relative="1" as="geometry"/>
                </mxCell>
                <mxCell id="33" style="edgeStyle=none;html=1;exitX=1;exitY=0.5;exitDx=0;exitDy=0;entryX=0;entryY=0.5;entryDx=0;entryDy=0;" parent="1" source="13" target="16" edge="1">
                    <mxGeometry relative="1" as="geometry"/>
                </mxCell>
                <mxCell id="13" value="User_Permission&lt;br&gt;(Program_Access)" style="rounded=1;whiteSpace=wrap;html=1;" parent="1" vertex="1">
                    <mxGeometry x="540" y="100" width="120" height="60" as="geometry"/>
                </mxCell>
                <mxCell id="15" value="Data_Level_Permission&lt;br&gt;(Account_Permission)" style="rounded=1;whiteSpace=wrap;html=1;fillColor=#66B2FF;" parent="1" vertex="1">
                    <mxGeometry x="710" y="380" width="130" height="60" as="geometry"/>
                </mxCell>
                <mxCell id="16" value="Screen_Permission" style="rounded=1;whiteSpace=wrap;html=1;" parent="1" vertex="1">
                    <mxGeometry x="710" y="30" width="120" height="60" as="geometry"/>
                </mxCell>
                <mxCell id="23" style="edgeStyle=none;html=1;exitX=1;exitY=0.5;exitDx=0;exitDy=0;" parent="1" source="17" edge="1">
                    <mxGeometry relative="1" as="geometry">
                        <mxPoint x="800" y="280" as="targetPoint"/>
                    </mxGeometry>
                </mxCell>
                <mxCell id="37" value="(M-M)" style="edgeLabel;html=1;align=center;verticalAlign=middle;resizable=0;points=[];" parent="23" vertex="1" connectable="0">
                    <mxGeometry x="-0.1433" y="6" relative="1" as="geometry">
                        <mxPoint as="offset"/>
                    </mxGeometry>
                </mxCell>
                <mxCell id="17" value="API_Role&lt;br&gt;(MAS_ROLE_AUFITHUB)&lt;div&gt;ต้องมี Colum&amp;nbsp;&lt;/div&gt;&lt;div&gt;OrgIdสำหรับ filter&lt;/div&gt;" style="rounded=1;whiteSpace=wrap;html=1;strokeColor=#1A1A1A;fillColor=#66B2FF;" parent="1" vertex="1">
                    <mxGeometry x="320" y="300" width="150" height="60" as="geometry"/>
                </mxCell>
                <mxCell id="18" value="Endpoint_Permission" style="rounded=1;whiteSpace=wrap;html=1;fillColor=#66B2FF;" parent="1" vertex="1">
                    <mxGeometry x="960" y="220" width="120" height="60" as="geometry"/>
                </mxCell>
                <mxCell id="19" value="ลำดับ Validatioin API&lt;br&gt;- User_Permission&lt;br&gt;- API_ROLE" style="text;html=1;align=center;verticalAlign=middle;whiteSpace=wrap;rounded=0;" parent="1" vertex="1">
                    <mxGeometry x="1050" y="200" width="190" height="50" as="geometry"/>
                </mxCell>
                <mxCell id="20" value="Screen_Language" style="rounded=1;whiteSpace=wrap;html=1;" parent="1" vertex="1">
                    <mxGeometry x="710" y="110" width="120" height="60" as="geometry"/>
                </mxCell>
                <mxCell id="32" style="edgeStyle=none;html=1;exitX=1;exitY=0.5;exitDx=0;exitDy=0;entryX=0.5;entryY=0;entryDx=0;entryDy=0;" parent="1" source="30" target="13" edge="1">
                    <mxGeometry relative="1" as="geometry"/>
                </mxCell>
                <mxCell id="30" value="Menu-Info" style="rounded=1;whiteSpace=wrap;html=1;" parent="1" vertex="1">
                    <mxGeometry x="420" y="20" width="120" height="60" as="geometry"/>
                </mxCell>
                <mxCell id="45" style="edgeStyle=none;html=1;exitX=1;exitY=0.5;exitDx=0;exitDy=0;entryX=0;entryY=0.5;entryDx=0;entryDy=0;" parent="1" source="41" target="44" edge="1">
                    <mxGeometry relative="1" as="geometry"/>
                </mxCell>
                <mxCell id="41" value="Audit_User&lt;div&gt;(Extend PortalUser)&lt;/div&gt;" style="rounded=1;whiteSpace=wrap;html=1;" parent="1" vertex="1">
                    <mxGeometry x="10" y="590" width="130" height="60" as="geometry"/>
                </mxCell>
                <mxCell id="44" value="Audit_Profile" style="rounded=1;whiteSpace=wrap;html=1;" parent="1" vertex="1">
                    <mxGeometry x="200" y="590" width="70" height="60" as="geometry"/>
                </mxCell>
                <mxCell id="46" value="Field&lt;br&gt;- Permission_type ควรเป็น Permission_Level&lt;div&gt;&lt;br/&gt;&lt;/div&gt;" style="text;html=1;align=center;verticalAlign=middle;whiteSpace=wrap;rounded=0;" parent="1" vertex="1">
                    <mxGeometry x="850" y="375" width="190" height="50" as="geometry"/>
                </mxCell>
                <mxCell id="51" value="" style="edgeStyle=none;html=1;" parent="1" source="47" target="50" edge="1">
                    <mxGeometry relative="1" as="geometry"/>
                </mxCell>
                <mxCell id="54" style="edgeStyle=none;html=1;exitX=0.5;exitY=1;exitDx=0;exitDy=0;entryX=0.5;entryY=0;entryDx=0;entryDy=0;" parent="1" source="47" target="53" edge="1">
                    <mxGeometry relative="1" as="geometry"/>
                </mxCell>
                <mxCell id="47" value="TH" style="rounded=1;whiteSpace=wrap;html=1;" parent="1" vertex="1">
                    <mxGeometry x="500" y="675" width="70" height="60" as="geometry"/>
                </mxCell>
                <mxCell id="57" style="edgeStyle=none;html=1;exitX=0.5;exitY=1;exitDx=0;exitDy=0;entryX=0.5;entryY=0;entryDx=0;entryDy=0;" parent="1" source="48" target="55" edge="1">
                    <mxGeometry relative="1" as="geometry"/>
                </mxCell>
                <mxCell id="58" style="edgeStyle=none;html=1;exitX=0.5;exitY=1;exitDx=0;exitDy=0;entryX=0.5;entryY=0;entryDx=0;entryDy=0;" parent="1" source="48" target="56" edge="1">
                    <mxGeometry relative="1" as="geometry"/>
                </mxCell>
                <mxCell id="48" value="VN" style="rounded=1;whiteSpace=wrap;html=1;" parent="1" vertex="1">
                    <mxGeometry x="750" y="680" width="70" height="60" as="geometry"/>
                </mxCell>
                <mxCell id="49" value="Country =&amp;gt; LV=-1" style="text;html=1;align=center;verticalAlign=middle;whiteSpace=wrap;rounded=0;" parent="1" vertex="1">
                    <mxGeometry x="870" y="685" width="190" height="50" as="geometry"/>
                </mxCell>
                <mxCell id="72" style="edgeStyle=none;html=1;exitX=0.5;exitY=1;exitDx=0;exitDy=0;entryX=0.5;entryY=0;entryDx=0;entryDy=0;" parent="1" source="50" target="61" edge="1">
                    <mxGeometry relative="1" as="geometry"/>
                </mxCell>
                <mxCell id="88" style="edgeStyle=none;html=1;exitX=0.5;exitY=1;exitDx=0;exitDy=0;entryX=0.5;entryY=0;entryDx=0;entryDy=0;" edge="1" parent="1" source="50" target="62">
                    <mxGeometry relative="1" as="geometry"/>
                </mxCell>
                <mxCell id="50" value="CPF" style="rounded=1;whiteSpace=wrap;html=1;" parent="1" vertex="1">
                    <mxGeometry x="430" y="820" width="70" height="60" as="geometry"/>
                </mxCell>
                <mxCell id="52" value="ORG_CODE" style="text;html=1;align=center;verticalAlign=middle;whiteSpace=wrap;rounded=0;" parent="1" vertex="1">
                    <mxGeometry x="880" y="820" width="190" height="50" as="geometry"/>
                </mxCell>
                <mxCell id="53" value="TRUE" style="rounded=1;whiteSpace=wrap;html=1;" parent="1" vertex="1">
                    <mxGeometry x="550" y="820" width="70" height="60" as="geometry"/>
                </mxCell>
                <mxCell id="73" style="edgeStyle=none;html=1;entryX=0.5;entryY=0;entryDx=0;entryDy=0;" parent="1" source="55" target="70" edge="1">
                    <mxGeometry relative="1" as="geometry"/>
                </mxCell>
                <mxCell id="74" style="edgeStyle=none;html=1;exitX=0.75;exitY=1;exitDx=0;exitDy=0;entryX=0.5;entryY=0;entryDx=0;entryDy=0;" parent="1" source="55" target="71" edge="1">
                    <mxGeometry relative="1" as="geometry"/>
                </mxCell>
                <mxCell id="55" value="CPVN" style="rounded=1;whiteSpace=wrap;html=1;" parent="1" vertex="1">
                    <mxGeometry x="675" y="815" width="70" height="65" as="geometry"/>
                </mxCell>
                <mxCell id="56" value="AXTRAVN" style="rounded=1;whiteSpace=wrap;html=1;" parent="1" vertex="1">
                    <mxGeometry x="795" y="815" width="70" height="60" as="geometry"/>
                </mxCell>
                <mxCell id="59" value="MST_BU =&amp;gt; LV=1" style="text;html=1;align=center;verticalAlign=middle;whiteSpace=wrap;rounded=0;" parent="1" vertex="1">
                    <mxGeometry x="890" y="950" width="190" height="50" as="geometry"/>
                </mxCell>
                <mxCell id="60" value="HR" style="rounded=1;whiteSpace=wrap;html=1;" parent="1" vertex="1">
                    <mxGeometry x="300" y="960" width="70" height="60" as="geometry"/>
                </mxCell>
                <mxCell id="67" style="edgeStyle=none;html=1;exitX=0.25;exitY=1;exitDx=0;exitDy=0;entryX=0.5;entryY=0;entryDx=0;entryDy=0;" parent="1" source="61" target="63" edge="1">
                    <mxGeometry relative="1" as="geometry"/>
                </mxCell>
                <mxCell id="68" style="edgeStyle=none;html=1;exitX=0.75;exitY=1;exitDx=0;exitDy=0;entryX=0.5;entryY=0;entryDx=0;entryDy=0;" parent="1" source="61" target="64" edge="1">
                    <mxGeometry relative="1" as="geometry"/>
                </mxCell>
                <mxCell id="61" value="FEED&lt;span style=&quot;font-family: monospace; font-size: 0px; text-align: start; text-wrap-mode: nowrap;&quot;&gt;%3CmxGraphModel%3E%3Croot%3E%3CmxCell%20id%3D%220%22%2F%3E%3CmxCell%20id%3D%221%22%20parent%3D%220%22%2F%3E%3CmxCell%20id%3D%222%22%20value%3D%22Auditor%22%20style%3D%22rounded%3D1%3BwhiteSpace%3Dwrap%3Bhtml%3D1%3B%22%20vertex%3D%221%22%20parent%3D%221%22%3E%3CmxGeometry%20x%3D%22300%22%20y%3D%22960%22%20width%3D%2270%22%20height%3D%2260%22%20as%3D%22geometry%22%2F%3E%3C%2FmxCell%3E%3C%2Froot%3E%3C%2FmxGraphModel%3E&lt;/span&gt;" style="rounded=1;whiteSpace=wrap;html=1;" parent="1" vertex="1">
                    <mxGeometry x="420" y="960" width="70" height="60" as="geometry"/>
                </mxCell>
                <mxCell id="62" value="CAR_FEED&lt;div&gt;(กรณีที่ ระดับ Module ต้องการมี Setting Area เป็นของตัวเอง ซึ่งโครงสร้างไม่เหมือนกับระดับORG)&lt;/div&gt;" style="rounded=1;whiteSpace=wrap;html=1;" parent="1" vertex="1">
                    <mxGeometry x="495" y="960" width="180" height="60" as="geometry"/>
                </mxCell>
                <mxCell id="63" value="LV2_1&lt;br&gt;(Agro)" style="rounded=1;whiteSpace=wrap;html=1;" parent="1" vertex="1">
                    <mxGeometry x="320" y="1090" width="70" height="60" as="geometry"/>
                </mxCell>
                <mxCell id="64" value="LV2_2&lt;br&gt;(Aqau)" style="rounded=1;whiteSpace=wrap;html=1;" parent="1" vertex="1">
                    <mxGeometry x="470" y="1090" width="70" height="60" as="geometry"/>
                </mxCell>
                <mxCell id="65" value="MST_Area =&amp;gt; LV=2" style="text;html=1;align=center;verticalAlign=middle;whiteSpace=wrap;rounded=0;" parent="1" vertex="1">
                    <mxGeometry x="900" y="1095" width="190" height="50" as="geometry"/>
                </mxCell>
                <mxCell id="70" value="Factoy1" style="rounded=1;whiteSpace=wrap;html=1;" parent="1" vertex="1">
                    <mxGeometry x="715" y="960" width="70" height="60" as="geometry"/>
                </mxCell>
                <mxCell id="71" value="Factory2" style="rounded=1;whiteSpace=wrap;html=1;" parent="1" vertex="1">
                    <mxGeometry x="810" y="960" width="70" height="60" as="geometry"/>
                </mxCell>
                <mxCell id="115" style="edgeStyle=none;html=1;exitX=1;exitY=0.5;exitDx=0;exitDy=0;entryX=0;entryY=0.5;entryDx=0;entryDy=0;" edge="1" parent="1" source="75" target="112">
                    <mxGeometry relative="1" as="geometry"/>
                </mxCell>
                <mxCell id="75" value="User_Permission_Relation&lt;br&gt;(AAM)&lt;div&gt;OrgId,&lt;br&gt;GroupUserId,&lt;br&gt;ProgramCode,&lt;br&gt;EndpointId&lt;/div&gt;" style="rounded=1;whiteSpace=wrap;html=1;fillColor=#FFFF99;" parent="1" vertex="1">
                    <mxGeometry x="510" y="200" width="160" height="90" as="geometry"/>
                </mxCell>
                <mxCell id="76" style="edgeStyle=none;html=1;entryX=0.5;entryY=1;entryDx=0;entryDy=0;exitX=0.5;exitY=0;exitDx=0;exitDy=0;" parent="1" source="75" target="13" edge="1">
                    <mxGeometry relative="1" as="geometry">
                        <mxPoint x="570" y="180" as="sourcePoint"/>
                    </mxGeometry>
                </mxCell>
                <mxCell id="78" value="MAS_COUNTRY" style="rounded=1;whiteSpace=wrap;html=1;fontStyle=0;fillColor=#66B2FF;" parent="1" vertex="1">
                    <mxGeometry x="130" y="460" width="120" height="80" as="geometry"/>
                </mxCell>
                <mxCell id="79" value="MAS_BU&lt;br&gt;UK(ORG_ID,&lt;br&gt;COUNTRY_ID,&lt;br&gt;BU_CODE)" style="rounded=1;whiteSpace=wrap;html=1;fontStyle=0;fillColor=#66B2FF;" parent="1" vertex="1">
                    <mxGeometry x="275" y="460" width="120" height="80" as="geometry"/>
                </mxCell>
                <mxCell id="80" value="ORGANIZATION" style="rounded=1;whiteSpace=wrap;html=1;fontStyle=0;fillColor=#66B2FF;" parent="1" vertex="1">
                    <mxGeometry x="690" y="460" width="120" height="80" as="geometry"/>
                </mxCell>
                <mxCell id="81" value="MAS_DIVISION" style="rounded=1;whiteSpace=wrap;html=1;fontStyle=0;fillColor=#66B2FF;" parent="1" vertex="1">
                    <mxGeometry x="840" y="460" width="120" height="80" as="geometry"/>
                </mxCell>
                <mxCell id="82" value="AREA" style="rounded=1;whiteSpace=wrap;html=1;fontStyle=0;fillColor=#66B2FF;" parent="1" vertex="1">
                    <mxGeometry x="405" y="460" width="120" height="80" as="geometry"/>
                </mxCell>
                <mxCell id="83" value="SUB_AREA" style="rounded=1;whiteSpace=wrap;html=1;fontStyle=0;fillColor=#66B2FF;" parent="1" vertex="1">
                    <mxGeometry x="540" y="460" width="120" height="80" as="geometry"/>
                </mxCell>
                <mxCell id="84" value="&lt;br class=&quot;Apple-interchange-newline&quot;&gt;&lt;span style=&quot;color: rgb(63, 63, 63);&quot;&gt;ROLE_DATAสร้างตาม&lt;br&gt;&lt;/span&gt;ORG,MODULE" style="text;html=1;align=center;verticalAlign=middle;whiteSpace=wrap;rounded=0;" vertex="1" parent="1">
                    <mxGeometry x="850" y="280" width="190" height="50" as="geometry"/>
                </mxCell>
                <mxCell id="89" value="MODULE_CAR&lt;div&gt;- CAR_DEFAULT&lt;br&gt;- CAR_AUDITEE&lt;/div&gt;" style="text;html=1;align=center;verticalAlign=middle;whiteSpace=wrap;rounded=0;" vertex="1" parent="1">
                    <mxGeometry x="1160" y="375" width="190" height="50" as="geometry"/>
                </mxCell>
                <mxCell id="90" value="&lt;br&gt;MODULE_AAM&lt;div&gt;- AAM_AUDITOR&lt;br&gt;- AAM_AUDITEE&lt;/div&gt;&lt;div&gt;- AAM_QSS&lt;/div&gt;&lt;div&gt;-AAM-MANAGER&lt;/div&gt;&lt;div&gt;- AAM_BUADMIN&lt;/div&gt;" style="text;html=1;align=center;verticalAlign=middle;whiteSpace=wrap;rounded=0;" vertex="1" parent="1">
                    <mxGeometry x="1010" y="375" width="190" height="50" as="geometry"/>
                </mxCell>
                <mxCell id="91" value="ROLE_DATA&amp;nbsp;&lt;div&gt;EXAMPLE&lt;/div&gt;" style="rounded=1;whiteSpace=wrap;html=1;fillColor=#66B2FF;" vertex="1" parent="1">
                    <mxGeometry x="1120" y="290" width="130" height="60" as="geometry"/>
                </mxCell>
                <mxCell id="92" value="&lt;br&gt;ที่ User ให้มีFlagระบุแทนว่า จะให้ใช้ UI มั้ย กรณีที่ ระบบปลายทางต้อง Access เฉพาะAPI แต่เรายังต้องการ เช็คสิทธิรายบุคคล" style="text;html=1;align=center;verticalAlign=middle;whiteSpace=wrap;rounded=0;" vertex="1" parent="1">
                    <mxGeometry x="-150" y="150" width="190" height="50" as="geometry"/>
                </mxCell>
                <mxCell id="93" value="API_ROLE ใช้กำหนด Permission แบบ Machine_to_Machine ไม่ระบุตัวคน ดังนั้นการกำหนด สามารถกำหนดEndpoint ที่ไม่ใช่ของPRogramได้ เช่น Endpointที่ CronJob เป็นคนใช้ก็ได้" style="text;html=1;align=center;verticalAlign=middle;whiteSpace=wrap;rounded=0;" vertex="1" parent="1">
                    <mxGeometry x="240" y="240" width="240" height="50" as="geometry"/>
                </mxCell>
                <mxCell id="95" value="SYSTEM&lt;div&gt;(BizเรียกPlatform)&lt;/div&gt;" style="rounded=1;whiteSpace=wrap;html=1;" vertex="1" parent="1">
                    <mxGeometry x="150" y="-40" width="120" height="60" as="geometry"/>
                </mxCell>
                <mxCell id="97" style="edgeStyle=none;html=1;exitX=0.5;exitY=1;exitDx=0;exitDy=0;entryX=0.413;entryY=0.008;entryDx=0;entryDy=0;entryPerimeter=0;" edge="1" parent="1" source="95" target="11">
                    <mxGeometry relative="1" as="geometry"/>
                </mxCell>
                <mxCell id="98" value="Endpoint_Policy" style="rounded=1;whiteSpace=wrap;html=1;fillColor=#66B2FF;" vertex="1" parent="1">
                    <mxGeometry x="890" y="120" width="120" height="60" as="geometry"/>
                </mxCell>
                <mxCell id="99" value="LoginProfile" style="rounded=1;whiteSpace=wrap;html=1;" vertex="1" parent="1">
                    <mxGeometry x="40" y="50" width="70" height="60" as="geometry"/>
                </mxCell>
                <mxCell id="100" value="CPF" style="rounded=1;whiteSpace=wrap;html=1;" vertex="1" parent="1">
                    <mxGeometry x="30" y="810" width="70" height="60" as="geometry"/>
                </mxCell>
                <mxCell id="109" style="edgeStyle=none;html=1;exitX=0.5;exitY=1;exitDx=0;exitDy=0;entryX=0.5;entryY=0;entryDx=0;entryDy=0;" edge="1" parent="1" source="102" target="107">
                    <mxGeometry relative="1" as="geometry"/>
                </mxCell>
                <mxCell id="102" value="AAM" style="rounded=1;whiteSpace=wrap;html=1;" vertex="1" parent="1">
                    <mxGeometry y="890" width="70" height="60" as="geometry"/>
                </mxCell>
                <mxCell id="110" style="edgeStyle=none;html=1;exitX=0.5;exitY=1;exitDx=0;exitDy=0;entryX=0.5;entryY=0;entryDx=0;entryDy=0;" edge="1" parent="1" source="104" target="108">
                    <mxGeometry relative="1" as="geometry"/>
                </mxCell>
                <mxCell id="104" value="CAR" style="rounded=1;whiteSpace=wrap;html=1;" vertex="1" parent="1">
                    <mxGeometry x="110" y="890" width="70" height="60" as="geometry"/>
                </mxCell>
                <mxCell id="105" value="MODULE_CODE&lt;br&gt;(BIZ=&amp;gt; SYSTEMCODE)" style="text;html=1;align=center;verticalAlign=middle;whiteSpace=wrap;rounded=0;" vertex="1" parent="1">
                    <mxGeometry x="-220" y="895" width="190" height="50" as="geometry"/>
                </mxCell>
                <mxCell id="106" value="ROLE&lt;br&gt;(GROUP_USER)" style="text;html=1;align=center;verticalAlign=middle;whiteSpace=wrap;rounded=0;" vertex="1" parent="1">
                    <mxGeometry x="-240" y="990" width="190" height="50" as="geometry"/>
                </mxCell>
                <mxCell id="107" value="AAM_AUDITOR" style="rounded=1;whiteSpace=wrap;html=1;" vertex="1" parent="1">
                    <mxGeometry x="-40" y="980" width="100" height="60" as="geometry"/>
                </mxCell>
                <mxCell id="108" value="CAR_AUDITOR" style="rounded=1;whiteSpace=wrap;html=1;" vertex="1" parent="1">
                    <mxGeometry x="130" y="980" width="100" height="60" as="geometry"/>
                </mxCell>
                <mxCell id="111" value="ORG&lt;br&gt;(TENaNT_CODE)" style="text;html=1;align=center;verticalAlign=middle;whiteSpace=wrap;rounded=0;" vertex="1" parent="1">
                    <mxGeometry x="-220" y="810" width="190" height="50" as="geometry"/>
                </mxCell>
                <mxCell id="113" style="edgeStyle=none;html=1;entryX=0;entryY=0.5;entryDx=0;entryDy=0;" edge="1" parent="1" target="98">
                    <mxGeometry relative="1" as="geometry">
                        <mxPoint x="820" y="210" as="sourcePoint"/>
                    </mxGeometry>
                </mxCell>
                <mxCell id="114" style="edgeStyle=none;html=1;exitX=1;exitY=0.5;exitDx=0;exitDy=0;entryX=0;entryY=0.5;entryDx=0;entryDy=0;" edge="1" parent="1" source="112" target="18">
                    <mxGeometry relative="1" as="geometry">
                        <Array as="points">
                            <mxPoint x="920" y="250"/>
                        </Array>
                    </mxGeometry>
                </mxCell>
                <mxCell id="112" value="Endpoint_Policy_MAPPIMNG" style="rounded=1;whiteSpace=wrap;html=1;fillColor=#66B2FF;" vertex="1" parent="1">
                    <mxGeometry x="720" y="215" width="190" height="60" as="geometry"/>
                </mxCell>
            </root>
        </mxGraphModel>
    </diagram>
</mxfile>